<svg width="572" height="455" viewBox="0 0 572 455" fill="none" xmlns="http://www.w3.org/2000/svg">
<path fill-rule="evenodd" clip-rule="evenodd" d="M198.634 363.781C198.634 317.243 236.361 279.515 282.9 279.515C329.44 279.515 367.166 317.243 367.166 363.781C367.166 410.321 329.44 448.048 282.9 448.048C236.361 448.048 198.634 410.321 198.634 363.781Z" fill="#187DFF"/>
<path fill-rule="evenodd" clip-rule="evenodd" d="M170.102 83.9247L305.888 58.6558L327.936 132.513L318.085 137.199L164.193 120.933L170.102 83.9247Z" fill="#FCC7E9"/>
<path fill-rule="evenodd" clip-rule="evenodd" d="M141.742 75.3447L171.163 85.6797L174.367 120.933L145.186 118.861L139.191 85.6797L141.742 75.3447Z" fill="#FCC7E9"/>
<path fill-rule="evenodd" clip-rule="evenodd" d="M544.055 131.92L567.852 112.325C570.438 110.196 571.923 107.012 571.892 103.662L570.988 5.67264C570.946 1.18753 565.803 -1.32497 562.239 1.39649L491.859 54.8189L544.055 131.92Z" fill="#6B50C3"/>
<path fill-rule="evenodd" clip-rule="evenodd" d="M568.652 111.667L561.98 117.16L562.177 1.44739C565.922 -1.599 571.526 1.05247 571.545 5.87851L571.924 104.699C571.935 107.395 570.734 109.953 568.652 111.667Z" fill="#36C4FE"/>
<path fill-rule="evenodd" clip-rule="evenodd" d="M530.205 25.9906C533.817 30.5587 536.882 36.0356 536.717 41.7205C536.648 44.112 535.511 46.7685 532.938 47.5023C529.566 48.4641 525.796 46.7175 522.503 44.5339C519.58 42.5953 517.008 40.1488 514.801 37.4303L515.733 36.6745C519.524 41.3435 524.239 45.8287 530.291 46.4925C532.041 46.6845 534.085 46.1546 534.943 44.3709C536.312 41.5225 535.307 37.8932 533.983 34.6629C532.784 31.7355 531.097 29.021 529.121 26.5565L530.057 25.8066C530.106 25.8676 530.156 25.9296 530.205 25.9906Z" fill="#E8F5FF"/>
<path fill-rule="evenodd" clip-rule="evenodd" d="M114.278 235.505C128.629 223.083 137.155 204.29 135.71 183.901C133.638 154.672 111.741 131.592 84.0977 126.844L89.7026 103.623C89.7026 103.623 67.247 108.008 57.7509 127.825C44.3626 128.857 30.8933 138.381 23.4788 147.987C11.6081 163.366 10.2524 178.268 11.2772 192.72C12.097 204.293 16.0342 214.896 22.196 223.786C7.84487 236.208 -0.681431 255.001 0.764281 275.391C3.1988 309.752 33.0289 335.633 67.391 333.197C101.751 330.762 127.632 300.932 125.196 266.571C124.377 254.999 120.439 244.396 114.278 235.505" fill="#FFDE03"/>
<g style="mix-blend-mode:soft-light" opacity="0.6">
<path d="M67.3895 333.198C88.8443 331.677 106.993 319.474 117.007 302.159C110.584 303.627 103.624 305.405 96.0708 307.539C33.9582 325.083 12.2285 282.593 4.64405 248.883C1.53167 257.082 0.101957 266.068 0.762825 275.391C3.19834 309.753 33.0284 335.634 67.3895 333.198Z" fill="black"/>
</g>
<g style="mix-blend-mode:soft-light" opacity="0.6">
<path d="M95.4063 169.792V169.793C103.174 187.654 111.667 207.587 84.7754 255.498L99.9064 256.866L148.371 210.333L117.765 161L95.4063 169.792Z" fill="black"/>
</g>
<path fill-rule="evenodd" clip-rule="evenodd" d="M217.096 177.568C219.052 205.174 198.26 229.139 170.655 231.096C143.048 233.052 119.084 212.259 117.128 184.655C115.171 157.049 135.964 133.084 163.568 131.128C191.174 129.171 215.139 149.964 217.096 177.568" fill="#FFDE03"/>
<path fill-rule="evenodd" clip-rule="evenodd" d="M437.516 199.669C437.516 228.225 414.367 251.376 385.809 251.376C357.253 251.376 334.103 228.225 334.103 199.669C334.103 171.113 357.253 147.962 385.809 147.962C414.367 147.962 437.516 171.113 437.516 199.669Z" fill="#36C4FE"/>
<path fill-rule="evenodd" clip-rule="evenodd" d="M358.63 155.656L494.304 52.9683L554.015 123.923L421.994 236.553L237.196 419.116L183.189 370.064L290.202 243.421L344.174 168.796L358.63 155.656Z" fill="#36C4FE"/>
<path fill-rule="evenodd" clip-rule="evenodd" d="M437.605 407.947L455.213 436.933C456.791 439.458 459.427 441.135 462.384 441.495L560.07 453.375C564.594 453.925 567.806 449.076 565.532 445.126L516.679 360.234L437.605 407.947Z" fill="#6B50C3"/>
<path fill-rule="evenodd" clip-rule="evenodd" d="M455.408 437.245L450.87 429.985L565.597 445.262C568.204 449.917 564.604 455.568 559.319 454.845L462.009 441.516C459.283 441.142 456.866 439.578 455.408 437.245Z" fill="#36C4FE"/>
<path fill-rule="evenodd" clip-rule="evenodd" d="M498.446 107.445C499.047 107.782 499.004 108.054 498.596 108.474L378.77 203.193C378.209 203.528 377.345 202.951 378.026 202.252L497.852 107.532C498.212 107.318 498.288 107.406 498.446 107.445Z" fill="#E8F5FF"/>
<path fill-rule="evenodd" clip-rule="evenodd" d="M530.046 144.381L529.125 145.15L468.428 72.5192L469.349 71.7499C489.581 95.9605 509.813 120.17 530.046 144.381Z" fill="#E8F5FF"/>
<path fill-rule="evenodd" clip-rule="evenodd" d="M535.09 139.692L534.169 140.462L473.953 68.4088L474.873 67.6395C494.946 91.6571 515.018 115.675 535.09 139.692Z" fill="#E8F5FF"/>
<path fill-rule="evenodd" clip-rule="evenodd" d="M454.459 250.679C454.459 284.268 427.23 311.497 393.641 311.497C360.053 311.497 332.823 284.268 332.823 250.679C332.823 217.089 360.053 189.861 393.641 189.861C427.23 189.861 454.459 217.089 454.459 250.679Z" fill="#36C4FE"/>
<path fill-rule="evenodd" clip-rule="evenodd" d="M356.712 361.585C356.712 402.188 323.798 435.102 283.195 435.102C242.592 435.102 209.678 402.188 209.678 361.585C209.678 320.983 242.592 288.068 283.195 288.068C323.798 288.068 356.712 320.983 356.712 361.585Z" fill="#36C4FE"/>
<path fill-rule="evenodd" clip-rule="evenodd" d="M521.961 369.455L449.972 227.718L381.325 311.496L444.121 419.115L521.961 369.455Z" fill="#36C4FE"/>
<path fill-rule="evenodd" clip-rule="evenodd" d="M339.248 410.308L401.237 319.028L354.761 204.044L221.578 335.889L339.248 410.308Z" fill="#36C4FE"/>
<path fill-rule="evenodd" clip-rule="evenodd" d="M394.076 189.261C411.526 189.443 428.515 197.28 439.992 210.38L445.357 216.733L444.441 217.506L439.082 211.162C430.689 201.582 419.257 194.688 406.842 191.912C388.02 187.701 367.22 193.041 353.053 206.225C351.136 208.008 349.323 209.895 347.453 211.72L222 336.187L221.154 335.335L346.611 210.864C349.163 208.375 351.601 205.788 354.322 203.504L355.022 202.805L355.054 202.902C365.986 194.043 380.097 189.213 394.076 189.261Z" fill="#187DFF"/>
<path fill-rule="evenodd" clip-rule="evenodd" d="M508.337 342.272L428.681 392.877L428.037 391.864L507.693 341.259C507.908 341.597 508.122 341.935 508.337 342.272Z" fill="#E8F5FF"/>
<path fill-rule="evenodd" clip-rule="evenodd" d="M512.097 349.437L432.938 399.726L432.294 398.713L511.453 348.424C511.668 348.762 511.882 349.099 512.097 349.437Z" fill="#E8F5FF"/>
<path fill-rule="evenodd" clip-rule="evenodd" d="M541.929 404.077C537.116 407.039 532.386 410.96 530.73 416.357C530.161 418.213 530.265 420.612 532.097 421.853C534.628 423.568 538.232 423.14 541.574 422.267C544.597 421.479 547.467 420.162 550.133 418.544L550.754 419.57C545.886 422.524 540.277 424.86 534.702 424.03C532.298 423.673 529.77 422.213 529.281 419.591C528.456 415.17 532.039 410.652 535.669 407.294C537.34 405.75 539.172 404.383 541.099 403.179L541.301 403.055C541.51 403.396 541.72 403.736 541.929 404.077Z" fill="#E8F5FF"/>
<path fill-rule="evenodd" clip-rule="evenodd" d="M385.809 341.881L392.957 331.498L379.115 308.385L385.809 341.881Z" fill="#0E0E0E"/>
<path fill-rule="evenodd" clip-rule="evenodd" d="M162.893 270.981C162.893 293.538 144.606 311.823 122.05 311.823C99.4924 311.823 81.207 293.538 81.207 270.981C81.207 248.423 99.4924 230.137 122.05 230.137C144.606 230.137 162.893 248.423 162.893 270.981" fill="#FC7BE0"/>
<path fill-rule="evenodd" clip-rule="evenodd" d="M266.438 180.434C266.438 202.991 248.151 221.277 225.595 221.277C203.038 221.277 184.752 202.991 184.752 180.434C184.752 157.876 203.038 139.59 225.595 139.59C248.151 139.59 266.438 157.876 266.438 180.434" fill="#FC7BE0"/>
<path fill-rule="evenodd" clip-rule="evenodd" d="M93.5085 241.766L138.539 192.229L197.33 150.45L290.587 243.42L182.999 375.268L145.186 336.639L125.231 419.474L55.5811 407.618L83.4025 257.915L93.5085 241.766Z" fill="#FC7BE0"/>
<path fill-rule="evenodd" clip-rule="evenodd" d="M204.795 145.278C204.795 145.278 254.693 208.09 255.157 207.584C255.62 207.078 341.247 120.932 341.247 120.932L289.069 79.0513L204.795 145.278Z" fill="#FC7BE0"/>
<path fill-rule="evenodd" clip-rule="evenodd" d="M158.18 209.849C157.234 212.827 157.427 215.68 158.499 218C156.363 216.902 153.718 216.551 150.875 217.199C150.216 217.348 149.577 217.559 148.949 217.8L148.048 206.148L158.943 207.969C158.65 208.577 158.386 209.201 158.18 209.849ZM117.007 215.916C120.978 229.041 134.556 241.852 149.149 241.028C149.654 241.021 150.168 240.984 150.692 240.911C150.706 240.909 150.72 240.909 150.734 240.907V240.904C151.091 240.853 151.451 240.793 151.814 240.71C158.549 239.176 163.799 232.669 163.539 226.176C163.482 224.753 163.153 223.458 162.622 222.307C163.618 222.817 164.736 223.169 165.966 223.327C172.369 224.151 179.263 219.451 181.367 212.831C181.48 212.474 181.57 212.119 181.652 211.765H181.656C181.659 211.751 181.66 211.737 181.663 211.723C181.78 211.203 181.861 210.692 181.912 210.186C183.986 195.668 173.496 181.317 160.912 176.175L137.57 193.295L117.007 215.916Z" fill="#E8F5FF"/>
<path fill-rule="evenodd" clip-rule="evenodd" d="M395.463 254.899C403.639 254.994 411.558 259.651 415.558 266.935L469.422 365.946C469.542 366.302 469.477 366.431 469.407 366.545C469.207 366.872 468.82 367.086 468.368 366.519C450.386 333.466 432.526 300.346 414.421 267.359C411.86 262.776 407.65 259.155 402.721 257.39C394.934 254.602 385.702 256.635 379.774 262.585L269.037 374.339C268.73 374.557 268.588 374.531 268.458 374.497C268.087 374.4 267.771 374.091 268.185 373.495C305.14 336.2 341.988 298.801 379.049 261.612C383.388 257.325 389.423 254.871 395.463 254.899Z" fill="#E8F5FF"/>
<path fill-rule="evenodd" clip-rule="evenodd" d="M279.487 232.352L167.491 361.528L182.041 377.355L290.587 243.42L279.487 232.352Z" fill="#E8F5FF"/>
<path fill-rule="evenodd" clip-rule="evenodd" d="M240.582 192.715C240.643 192.738 240.699 192.744 240.851 192.871L291.011 242.996C291.438 243.505 290.72 244.312 290.163 243.845L240.003 193.719C239.645 193.293 239.946 192.604 240.582 192.715Z" fill="#E8F5FF"/>
<path fill-rule="evenodd" clip-rule="evenodd" d="M294.041 168.429C316.858 145.469 341.246 120.933 341.246 120.933L286.715 77.1628L238.426 117.315L294.041 168.429Z" fill="#E8F5FF"/>
<path fill-rule="evenodd" clip-rule="evenodd" d="M251.875 106.132L306.27 156.124C324.792 137.488 341.248 120.933 341.248 120.933L286.716 77.1613L251.875 106.132Z" fill="#FCC7E9"/>
<path fill-rule="evenodd" clip-rule="evenodd" d="M132.549 423.237C127.222 444.376 105.844 457.175 84.7994 451.825C63.7546 446.473 51.0131 424.999 56.3401 403.859C61.667 382.721 83.0458 369.922 104.09 375.272C125.134 380.624 137.876 402.098 132.549 423.237" fill="#FCC7E9"/>
<path fill-rule="evenodd" clip-rule="evenodd" d="M170.102 83.9247L305.888 58.6558L341.246 120.933L305.981 137.053L164.193 120.933L170.102 83.9247Z" fill="#FCC7E9"/>
<path fill-rule="evenodd" clip-rule="evenodd" d="M347.623 107.342C342.263 128.519 320.751 141.34 299.574 135.981C278.397 130.62 265.577 109.108 270.936 87.9311C276.296 66.7543 297.809 53.9329 318.985 59.2928C340.163 64.6538 352.983 86.1655 347.623 107.342" fill="#FCC7E9"/>
<path fill-rule="evenodd" clip-rule="evenodd" d="M202.417 106.822L193.117 146.178C192.419 149.136 189.454 150.966 186.498 150.268L108.241 131.775C105.283 131.076 103.452 128.113 104.15 125.156L113.45 85.8004C114.149 82.843 117.114 81.0124 120.07 81.7112L198.328 100.203C201.285 100.901 203.116 103.865 202.417 106.822Z" fill="#0E0E0E"/>
<path fill-rule="evenodd" clip-rule="evenodd" d="M189.571 108.587L182.419 138.852C181.934 140.906 179.877 142.177 177.823 141.691L116.113 127.109C114.061 126.624 112.789 124.566 113.274 122.513L120.426 92.2472C120.911 90.1946 122.969 88.9229 125.022 89.4078L186.731 103.99C188.785 104.476 190.056 106.533 189.571 108.587Z" fill="#E8F5FF"/>
<path fill-rule="evenodd" clip-rule="evenodd" d="M71.2451 75.5795C73.8506 76.1954 75.4633 78.8068 74.8474 81.4113C74.2315 84.0158 71.621 85.6295 69.0166 85.0146C66.4111 84.3977 64.7974 81.7872 65.4133 79.1828C66.0292 76.5773 68.6406 74.9646 71.2451 75.5795Z" fill="#0E0E0E"/>
<path fill-rule="evenodd" clip-rule="evenodd" d="M117.184 90.9097L116.957 91.8685C116.724 92.8553 115.735 93.4672 114.747 93.2332L69.7073 82.5913C68.7195 82.3574 68.1086 81.3676 68.3415 80.3808L68.5685 79.422C68.8014 78.4342 69.7912 77.8233 70.778 78.0572L115.819 88.6991C116.806 88.9321 117.417 89.9229 117.184 90.9097Z" fill="#0E0E0E"/>
<path fill-rule="evenodd" clip-rule="evenodd" d="M194.644 125.801C194.644 127.683 193.118 129.208 191.236 129.208C189.355 129.208 187.829 127.683 187.829 125.801C187.829 123.919 189.355 122.395 191.236 122.395C193.118 122.395 194.644 123.919 194.644 125.801Z" fill="#E8F5FF"/>
<path fill-rule="evenodd" clip-rule="evenodd" d="M131.307 106.272C128.569 107.151 125.639 105.643 124.761 102.906C123.882 100.17 125.39 97.2382 128.127 96.3603C130.864 95.4815 133.795 96.9892 134.673 99.7257C135.551 102.463 134.044 105.395 131.307 106.272" fill="#FCC7E9"/>
<path fill-rule="evenodd" clip-rule="evenodd" d="M143.724 84.2637C140.311 85.3585 136.658 83.4798 135.562 80.0665C134.467 76.6532 136.347 72.9989 139.759 71.9041C143.172 70.8094 146.827 72.689 147.921 76.1013C149.016 79.5146 147.138 83.1679 143.724 84.2637" fill="#FCC7E9"/>
<path fill-rule="evenodd" clip-rule="evenodd" d="M135.864 75.3447L124.898 99.3669L134.394 103.587L147.361 81.3183L135.864 75.3447Z" fill="#FCC7E9"/>
<path fill-rule="evenodd" clip-rule="evenodd" d="M144.754 110.791C142.017 111.668 139.086 110.161 138.208 107.424C137.33 104.687 138.837 101.756 141.574 100.878C144.311 99.9997 147.243 101.506 148.121 104.244C148.998 106.98 147.492 109.912 144.754 110.791" fill="#FCC7E9"/>
<path fill-rule="evenodd" clip-rule="evenodd" d="M157.172 88.7812C153.758 89.877 150.104 87.9974 149.009 84.5841C147.914 81.1717 149.794 77.5165 153.206 76.4227C156.62 75.3269 160.274 77.2065 161.369 80.6198C162.463 84.0322 160.585 87.6864 157.172 88.7812" fill="#FCC7E9"/>
<path fill-rule="evenodd" clip-rule="evenodd" d="M149.312 79.8633L138.346 103.885L147.841 108.105L160.808 85.8355L149.312 79.8633Z" fill="#FCC7E9"/>
<path fill-rule="evenodd" clip-rule="evenodd" d="M157.441 114.852C154.703 115.73 151.773 114.223 150.895 111.486C150.016 108.749 151.524 105.818 154.26 104.939C156.999 104.061 159.929 105.569 160.807 108.305C161.686 111.043 160.178 113.974 157.441 114.852" fill="#FCC7E9"/>
<path fill-rule="evenodd" clip-rule="evenodd" d="M169.858 92.8434C166.445 93.9381 162.79 92.0585 161.696 88.6462C160.601 85.2329 162.48 81.5776 165.893 80.4838C169.306 79.389 172.96 81.2677 174.055 84.681C175.15 88.0933 173.271 91.7476 169.858 92.8434" fill="#FCC7E9"/>
<path fill-rule="evenodd" clip-rule="evenodd" d="M161.998 83.9243L151.032 107.947L160.528 112.166L173.495 89.8966L161.998 83.9243Z" fill="#FCC7E9"/>
<path fill-rule="evenodd" clip-rule="evenodd" d="M136.083 169.397C146.242 161.913 148.409 147.611 140.926 137.452L125.59 116.635C120.096 109.178 101.646 115.285 100.697 115.332C100.697 115.332 72.1456 121.126 77.5306 128.434L104.138 164.553C111.623 174.712 125.924 176.88 136.083 169.397" fill="#FCC7E9"/>
<path fill-rule="evenodd" clip-rule="evenodd" d="M87.6203 118.331C101.212 130.381 116.664 135.925 127.354 119.133C124.36 112.933 120.875 108.03 109.247 103.535C99.031 99.5859 76.8534 104.724 70.3097 113.722C66.5445 118.898 83.7031 114.858 87.6203 118.331" fill="#FFDE03"/>
<path fill-rule="evenodd" clip-rule="evenodd" d="M92.1748 146.015L121.915 144.255L149.983 175.682C152.642 178.492 155.328 181.289 158.264 183.809C162.307 187.279 165.144 192.211 165.87 197.997C167.246 208.974 160.094 219.547 149.39 222.343C137.388 225.477 125.462 218.334 122.214 206.826L122.205 206.833L92.1748 146.015Z" fill="#FCC7E9"/>
<path fill-rule="evenodd" clip-rule="evenodd" d="M105.559 167.599C101.299 171.062 95.0394 170.415 91.5771 166.156C88.1148 161.895 88.7617 155.635 93.0218 152.172C94.6895 150.818 97.141 151.071 98.4967 152.739L106.125 162.124C107.481 163.792 107.227 166.245 105.559 167.599" fill="#FCC7E9"/>
<path fill-rule="evenodd" clip-rule="evenodd" d="M113.042 147.141C113.659 147.9 113.544 149.015 112.785 149.632C112.025 150.249 110.909 150.134 110.292 149.375C109.675 148.616 109.79 147.499 110.55 146.883C111.309 146.266 112.425 146.381 113.042 147.141Z" fill="#0E0E0E"/>
<path fill-rule="evenodd" clip-rule="evenodd" d="M109.802 142.108C110.428 142.199 110.525 143.055 109.599 143.38C106.468 144.523 105.001 148.845 107.281 151.705C107.281 151.705 107.449 151.945 107.401 152.193C107.308 152.675 106.721 152.927 106.27 152.361C103.702 149.017 105.301 143.394 109.569 142.13C109.569 142.13 109.571 142.093 109.802 142.108Z" fill="#0E0E0E"/>
<path fill-rule="evenodd" clip-rule="evenodd" d="M127.775 127.498C128.402 127.589 128.499 128.446 127.573 128.771C124.448 129.912 122.975 134.237 125.255 137.095C125.255 137.095 125.423 137.335 125.375 137.583C125.282 138.066 124.696 138.318 124.244 137.751C121.71 134.451 123.18 128.899 127.394 127.565C127.513 127.527 127.537 127.483 127.775 127.498Z" fill="#0E0E0E"/>
<path fill-rule="evenodd" clip-rule="evenodd" d="M130.995 132.549C131.612 133.309 131.496 134.424 130.737 135.041C129.978 135.658 128.862 135.543 128.245 134.784C127.629 134.025 127.744 132.908 128.502 132.291C129.262 131.674 130.378 131.789 130.995 132.549Z" fill="#0E0E0E"/>
<path fill-rule="evenodd" clip-rule="evenodd" d="M129.254 142.875C129.779 142.924 130.131 143.539 130.465 144.077C131.452 145.674 131.211 148.069 129.432 149.219C128.906 149.558 128.132 148.779 128.914 148.091C130.077 147.031 130.085 145.203 128.862 143.966C128.459 143.558 128.622 142.855 129.254 142.875Z" fill="#0E0E0E"/>
<path fill-rule="evenodd" clip-rule="evenodd" d="M122.1 153.82C122.359 153.854 122.421 153.977 122.832 154.39C124.578 156.1 127.562 156.339 129.709 154.448C130.535 153.721 131.375 154.547 130.617 155.245C129.333 156.393 127.718 157.226 126.056 157.158C124.278 157.086 122.59 156.155 121.551 154.757C121.301 154.364 121.575 153.791 122.1 153.82Z" fill="#0E0E0E"/>
<path fill-rule="evenodd" clip-rule="evenodd" d="M80.5905 154.417C102.278 151.548 112.018 137.292 108.643 112.529C107.35 103.043 84.9746 98.8261 75.7384 111.179C66.4033 123.664 71.2273 155.656 80.5905 154.417" fill="#FFDE03"/>
<path fill-rule="evenodd" clip-rule="evenodd" d="M139.777 166.038C140.258 166.094 140.503 166.67 140.172 167.052C139.469 167.782 139.418 167.814 139.086 168.121C134.231 172.591 127.463 174.927 120.853 174.352C120.853 174.352 120.633 174.318 120.502 174.198C120.13 173.861 120.317 173.135 120.957 173.156C121.206 173.178 121.206 173.178 121.455 173.197C128.086 173.623 134.74 170.963 139.308 166.221C139.308 166.221 139.406 166.035 139.777 166.038Z" fill="#0E0E0E"/>
<path fill-rule="evenodd" clip-rule="evenodd" d="M393.456 331.835L345.791 402.093C332.94 421.563 310.811 434.212 287.721 435.51C270.465 436.48 252.952 431.172 239.018 420.793L205.496 392.074L206.276 391.162L239.768 419.855C253.264 429.909 270.33 435.179 287.198 434.336C310.031 433.195 331.89 420.976 344.793 401.425L392.462 331.161C392.793 331.386 393.124 331.61 393.456 331.835Z" fill="#187DFF"/>
<path fill-rule="evenodd" clip-rule="evenodd" d="M305.157 155.929C305.871 156.081 305.735 156.67 305.521 156.94L255.984 208.749C255.474 209.192 254.639 208.521 255.117 207.92L304.654 156.11C304.791 155.991 304.961 155.925 305.157 155.929Z" fill="#E8F5FF"/>
<path fill-rule="evenodd" clip-rule="evenodd" d="M140.563 355.827L67.1087 345.265L55.5803 407.619L125.23 419.474L140.563 355.827Z" fill="#FCC7E9"/>
<path fill-rule="evenodd" clip-rule="evenodd" d="M216.638 399.728L144.7 338.629L149.59 318.582L216.638 399.728Z" fill="#0E0E0E"/>
<path fill-rule="evenodd" clip-rule="evenodd" d="M135.88 375.268L140.564 355.827L67.1088 345.264L63.4555 364.854L135.88 375.268Z" fill="#E8F5FF"/>
<path fill-rule="evenodd" clip-rule="evenodd" d="M256.072 342.525C255.222 346.236 251.526 348.555 247.815 347.706C244.105 346.856 241.786 343.16 242.635 339.449C243.484 335.739 247.181 333.42 250.891 334.269C254.602 335.118 256.922 338.814 256.072 342.525" fill="#FCC7E9"/>
<path fill-rule="evenodd" clip-rule="evenodd" d="M253.154 354.252C252.549 358.011 249.01 360.565 245.253 359.959C241.495 359.353 238.939 355.815 239.546 352.058C240.152 348.299 243.689 345.744 247.448 346.351C251.206 346.957 253.76 350.494 253.154 354.252" fill="#FCC7E9"/>
<path fill-rule="evenodd" clip-rule="evenodd" d="M242.579 362.257C241.973 366.015 238.435 368.569 234.678 367.964C230.919 367.358 228.365 363.819 228.971 360.062C229.577 356.304 233.115 353.748 236.872 354.355C240.63 354.961 243.185 358.498 242.579 362.257" fill="#FCC7E9"/>
<path fill-rule="evenodd" clip-rule="evenodd" d="M274.067 375.096C273.581 378.11 270.744 380.159 267.73 379.673C264.716 379.187 262.666 376.35 263.152 373.335C263.639 370.322 266.477 368.273 269.49 368.758C272.504 369.244 274.553 372.081 274.067 375.096" fill="#FCC7E9"/>
<path fill-rule="evenodd" clip-rule="evenodd" d="M257.436 384.605C256.95 387.62 254.113 389.668 251.1 389.182C248.085 388.696 246.036 385.859 246.521 382.845C247.008 379.831 249.846 377.782 252.859 378.268C255.874 378.753 257.922 381.591 257.436 384.605" fill="#FCC7E9"/>
<path fill-rule="evenodd" clip-rule="evenodd" d="M283.563 358.366C282.882 361.342 279.918 363.202 276.941 362.52C273.965 361.84 272.105 358.874 272.786 355.898C273.468 352.923 276.432 351.062 279.408 351.744C282.384 352.426 284.245 355.389 283.563 358.366" fill="#FCC7E9"/>
<path fill-rule="evenodd" clip-rule="evenodd" d="M281.423 352.659L252.164 334.7L245.944 347.098L276.073 362.24L281.423 352.659Z" fill="#FCC7E9"/>
<path fill-rule="evenodd" clip-rule="evenodd" d="M251.223 348.284L272.218 370.032L265.788 378.968L242.194 358.652L251.223 348.284Z" fill="#FCC7E9"/>
<path fill-rule="evenodd" clip-rule="evenodd" d="M228.103 366.067L247.816 387.348L256.38 380.389L241.539 357.396L228.103 366.067Z" fill="#FCC7E9"/>
<path fill-rule="evenodd" clip-rule="evenodd" d="M115.009 446.869C115.009 446.869 213.692 366.674 220.838 360.06L235.101 373.066L242.742 366.288L265.176 342.686L257.004 336.916C257.004 336.916 233.668 324.711 221.577 323.196C206.441 321.299 71.5186 380.807 71.5186 380.807L115.009 446.869Z" fill="#FCC7E9"/>
<path fill-rule="evenodd" clip-rule="evenodd" d="M231.789 328.303L261.254 325.642C262.909 325.492 264.5 326.467 265.008 328.051C266 331.142 264.954 336.264 249.982 339.423C227.42 344.184 231.789 328.303 231.789 328.303" fill="#FCC7E9"/>
<path fill-rule="evenodd" clip-rule="evenodd" d="M292.796 134.95C293.441 135.103 293.438 136.136 292.661 136.142L198.567 125.445C197.917 125.29 197.871 124.26 198.702 124.252C230.067 127.819 261.432 131.385 292.796 134.95Z" fill="#0E0E0E"/>
<path fill-rule="evenodd" clip-rule="evenodd" d="M162.966 81.9191C163.374 81.9956 163.588 82.3802 163.437 82.7672L151.576 108.201C150.969 109.312 150.285 108.213 150.488 107.694L162.349 82.2602C162.527 81.9328 162.574 81.8953 162.966 81.9191Z" fill="#0E0E0E"/>
<path fill-rule="evenodd" clip-rule="evenodd" d="M149.66 77.491C150.052 77.5723 150.262 77.938 150.129 78.3192L138.95 104.74C138.834 104.969 138.756 105.008 138.622 105.061C138.186 105.238 137.669 104.776 137.845 104.272L149.024 77.8516C149.199 77.5032 149.252 77.4617 149.66 77.491Z" fill="#0E0E0E"/>
<path fill-rule="evenodd" clip-rule="evenodd" d="M136.852 73.3063C137.261 73.3768 137.481 73.7583 137.334 74.1484L125.828 99.7927C125.633 100.162 125.475 100.144 125.291 100.147C124.89 100.154 124.58 99.7076 124.733 99.3015L136.239 73.6573C136.413 73.3264 136.46 73.2882 136.852 73.3063Z" fill="#0E0E0E"/>
<path fill-rule="evenodd" clip-rule="evenodd" d="M227.143 127.873C227.647 127.977 227.836 128.597 227.428 128.955L174.72 167.122C174.152 167.458 173.412 166.679 174.016 166.151L226.724 127.984C226.793 127.942 226.868 127.867 227.143 127.873Z" fill="#0E0E0E"/>
<path fill-rule="evenodd" clip-rule="evenodd" d="M200.946 147.39L239.317 129.591L227.077 128.469L200.946 147.39Z" fill="#0E0E0E"/>
<path fill-rule="evenodd" clip-rule="evenodd" d="M151.303 311.226C151.812 311.309 151.913 311.489 151.836 311.967L142.208 351.124C142.002 351.743 140.908 351.652 141.042 350.838L150.671 311.68C150.806 311.27 150.861 311.224 151.303 311.226Z" fill="#E8F5FF"/>
<path fill-rule="evenodd" clip-rule="evenodd" d="M187.702 331.539C188.339 331.904 188.283 332.312 187.704 332.647L81.9199 376.764C80.9194 377.035 80.8938 375.984 81.4581 375.657L187.242 331.54C187.417 331.493 187.32 331.437 187.702 331.539Z" fill="#0E0E0E"/>
<path fill-rule="evenodd" clip-rule="evenodd" d="M249.224 338.032C250.439 338.213 249.142 340.748 248.227 342.733C245.122 349.476 240.394 355.394 234.957 360.487C234.957 360.487 234.554 360.747 234.245 360.567C233.192 359.954 235.767 358.108 237.458 356.294C242.044 351.377 246.062 345.731 248.275 339.456C248.427 339.026 248.613 338.405 248.613 338.405C248.772 338.067 248.83 338.018 249.224 338.032Z" fill="#0E0E0E"/>
<path fill-rule="evenodd" clip-rule="evenodd" d="M254.966 351.006C255.011 351.012 255.046 351.011 255.174 351.065L277.208 361.981C277.586 362.199 277.557 362.39 277.538 362.577C277.5 362.964 277.072 363.223 276.675 363.056L254.641 352.14C254.143 351.854 254.296 350.98 254.966 351.006Z" fill="#0E0E0E"/>
<path fill-rule="evenodd" clip-rule="evenodd" d="M244.663 360.972C244.884 361.008 244.901 361.047 244.981 361.105L266.169 378.505C266.48 378.793 266.414 378.963 266.365 379.135C266.257 379.509 265.767 379.695 265.407 379.432L244.22 362.032C243.822 361.666 244.053 360.943 244.663 360.972Z" fill="#0E0E0E"/>
<path fill-rule="evenodd" clip-rule="evenodd" d="M248.248 386.931C248.852 387.766 247.904 388.166 247.386 387.765L221.529 361.079L115.388 447.335C115.388 447.335 115.263 447.523 114.906 447.46C114.471 447.383 114.141 446.935 114.632 446.403L221.625 359.455C230.499 368.613 239.373 377.772 248.248 386.931Z" fill="#0E0E0E"/>
<path fill-rule="evenodd" clip-rule="evenodd" d="M521.961 369.455L448.229 425.436L443.478 418.012L521.961 369.455Z" fill="#0E0E0E"/>
<path fill-rule="evenodd" clip-rule="evenodd" d="M494.305 52.9683L561.98 117.161L554.015 123.923L494.305 52.9683Z" fill="#0E0E0E"/>
</svg>
