<svg xmlns="http://www.w3.org/2000/svg" viewBox="0 0 966.59 1483.53"><defs><style>.cls-1{fill:#f26222;}.cls-1,.cls-2,.cls-3{fill-rule:evenodd;}.cls-2{fill:#f9a12a;}.cls-3{fill:#fff;}</style></defs><title>Asset 1</title><g id="Layer_2" data-name="Layer 2"><g id="Layer_1-2" data-name="Layer 1"><path class="cls-1" d="M719.15,1159.16l25.16,48s-30.37,56.41-33.46,82.43,7.59,115.92,7.59,115.92c38.52.68,40.43,37.51,40.43,37.51h-65.7c-2.17,0-32.51-140.25-32.51-140.25a84.25,84.25,0,0,1-4.4-13.79c23.65-28.34,44.72-80.92,62.89-129.79M836.81,9.57s15.81,14.56,58.89,22.62,65.09,10.23,63.84,34.71-56.71,61.36-103.82,84.92-51.44,48.34-49,77.47S850.59,316.7,882.91,344s46.57,104.15,42.24,142-17.35,127.67-6.81,145.65,47.34,61.37,47.45,124,8.41,106.7-31.33,138.23c0,0-3.73-33.48-8.68-70s-19.84-106.6-62.61-134.5c0,0,51.44,79.95,50.21,138.84s9.29,104.75,13,187.8-64.33,258.47-120.19,294.42c0,0-13.08,9.61-4.7,59.19s14.87,80.28,14.87,80.28c40.92-8,47.42,16.41,47.42,33.78H786.94L733.33,1306s-5.9-8.53,8.06-22.15,17.66-37.66,16.42-69.87c-.83-21.72-5.06-58.08-22.49-88.77,12.33-41.07,19.58-80.67,18.3-109.3-3.73-83.05-14.26-128.93-13-187.8,1-47.07-31.67-107.59-44.81-130l.16-4.88c38.52,30.1,52.31,95.59,57.06,130.53,5,36.56,8.68,70,8.68,70,37.8-5.58,25.14-75.62,31.33-138.23s-36.91-106-47.45-124,2.48-107.85,6.81-145.65-9.92-114.67-42.24-142c-16.64-14-35.69-36.3-50.58-58.59-6.2-36.9-11.1-73.37-12.94-107,7.54-9.14,19-17.94,36.34-26.58,47.11-23.56,102.57-60.43,103.82-84.92S766,40.25,722.93,32.19a204.42,204.42,0,0,1-29.28-7.58C738.94-6.81,807.21-3.75,836.81,9.57Z"/><path class="cls-2" d="M425,1177.16l-7.62,20.8s-32.25,59.88-35.55,87.53,17.12,123.1,17.12,123.1c40.89.71,38.83,39.81,38.83,39.81H372.9c-2.29,0-44.38-148.91-44.38-148.91s-11.75-26.52-3.92-45,27.76-82.29,31.87-105.32a123.48,123.48,0,0,1,8.51-27.77c4.56-8,8.79-11.53,8.79-11.53,24.21,15.21,42.83,43.34,51.19,67.32"/><path class="cls-2" d="M529.84,9.57s15.81,14.56,58.89,22.62,65.09,10.23,63.84,34.71-56.71,61.36-103.82,84.92-51.44,48.34-49,77.47S543.62,316.7,575.94,344s46.57,104.15,42.24,142-17.35,127.67-6.81,145.65,53.65,61.37,47.45,124,6.46,132.65-31.34,138.23c0,0-3.72-33.48-8.67-70S599,717.12,556.2,689.22c0,0,51.44,79.95,50.21,138.84s9.29,104.75,13,187.8-64.33,258.47-120.19,294.42c0,0-13.08,9.61-4.71,59.19s14.87,80.28,14.87,80.28c40.93-8,47.43,16.41,47.43,33.78H480L426.36,1306s-5.9-8.53,8.06-22.15,17.66-37.66,16.41-69.87-9.9-96.69-58.25-127.07c0,0-71.9,32.24-80.58,101-7.32,58.14-63,213.51-135,263.37-36.57,25.32-177,19.8-177,12.24,0-8.24,4.75-12.76,42.21-11.49s110.64,2.62,144.69-68.93c20.87-43.85,51.25-167,77.91-240.52,12.24-33.73,35.86-75.87,51.9-114.55,27.31-65.9,61.84-157.64,64.85-197.1,4.34-57,19.84-294.43-3.72-413.42s-57-269-27.27-347.12S490-8.34,529.84,9.57"/><path class="cls-3" d="M476.69,52.64a16.28,16.28,0,1,1-16.27,16.28,16.28,16.28,0,0,1,16.27-16.28"/><path class="cls-3" d="M840.06,52.64a16.28,16.28,0,1,1-16.27,16.28,16.27,16.27,0,0,1,16.27-16.28"/></g></g></svg>